<svg width="40" height="40" viewBox="0 0 40 40" fill="none" xmlns="http://www.w3.org/2000/svg">
<path d="M40 20C40 31.0457 31.0457 40 20 40C8.9543 40 0 31.0457 0 20C0 8.9543 8.9543 0 20 0C31.0457 0 40 8.9543 40 20Z" fill="white"/>
<path fill-rule="evenodd" clip-rule="evenodd" d="M22.4525 3.87049C22.4283 3.94815 22.4064 4.01801 22.3943 4.04918C21.775 5.64307 21.1783 7.28902 20.7784 8.93369C20.2321 11.1803 20.1575 13.499 20.1045 15.8353C20.6433 16.3212 21.1544 16.7501 21.5934 17.0664C21.9396 17.3158 22.2222 17.4813 22.4279 17.5558C22.5309 17.593 22.5918 17.5989 22.6202 17.5966C22.9739 17.0888 22.9957 16.4163 22.9972 15.6205C22.9972 15.5876 22.9972 15.5544 22.9972 15.521C22.9977 14.7859 22.9982 13.9489 23.4062 13.269C23.4188 13.2479 23.4282 13.2302 23.4405 13.2069C23.4499 13.1889 23.4611 13.1677 23.4769 13.1391C23.5054 13.0876 23.5472 13.016 23.6038 12.9535C23.661 12.8901 23.755 12.8121 23.891 12.7921C24.0308 12.7716 24.1553 12.821 24.254 12.8903C24.5398 13.091 24.7638 13.3672 24.9497 13.6395C25.0653 13.8089 25.1783 13.9964 25.2815 14.1677C25.3388 14.2628 25.3931 14.3529 25.4432 14.4322C25.557 14.6122 25.6727 14.793 25.789 14.9748C26.196 15.6108 26.6105 16.2585 26.9766 16.9278C27.2437 17.4161 27.4526 17.9246 27.6512 18.42C27.6695 18.4656 27.6876 18.511 27.7058 18.5563C27.8864 19.0081 28.0618 19.4466 28.2731 19.8692C28.2727 19.8685 28.2735 19.8697 28.2758 19.8735C28.2802 19.8808 28.2903 19.8973 28.3087 19.9264C28.3148 19.9361 28.3214 19.9466 28.3284 19.9576C28.3475 19.9879 28.3693 20.0225 28.3899 20.0557C28.4174 20.1003 28.4476 20.1502 28.4698 20.1922C28.4798 20.2113 28.4945 20.2402 28.5054 20.2709C28.5099 20.2835 28.5213 20.3167 28.5244 20.3586L28.5244 20.3588C28.5257 20.3765 28.5384 20.5459 28.3772 20.638C28.1087 20.7915 27.8347 21.0987 27.5453 21.4724C27.4697 21.57 27.3925 21.6731 27.3146 21.7771C27.1126 22.0467 26.9061 22.3223 26.7117 22.5246C26.1139 23.1467 25.5097 23.7575 24.8915 24.3496C25.4546 24.5413 26.015 24.749 26.5724 24.974C28.7654 25.8591 31.3142 26.9574 33.1758 28.5622C33.4138 28.7674 33.545 28.9745 33.6774 29.2062C33.9367 29.6601 34.0132 30.0805 33.8139 30.4221C33.6261 30.744 33.2543 30.8816 32.9167 30.9434C32.2239 31.0701 31.3149 30.9414 30.8689 30.8404C29.8585 30.6116 28.8527 30.2978 27.8588 29.9876C27.3916 29.8418 26.927 29.6968 26.4657 29.5619C25.0097 29.1359 23.5603 28.8004 22.0596 28.8004C21.9357 28.8004 21.8295 28.8546 21.7265 28.9813C21.6176 29.1153 21.5261 29.3163 21.455 29.5628C21.3133 30.0537 21.2774 30.6351 21.2774 30.9581C21.2774 31.0618 21.2793 31.1668 21.2812 31.2726C21.2947 32.0119 21.309 32.793 20.6768 33.4738C20.5584 33.6013 20.4281 33.7049 20.3211 33.7901C20.2987 33.8079 20.2772 33.825 20.2572 33.8412C20.134 33.9411 20.0457 34.0233 19.9805 34.1276C19.9679 34.1478 19.9322 34.2007 19.8624 34.2361C19.7717 34.2822 19.6684 34.2764 19.5863 34.2306C19.523 34.1952 19.4903 34.1463 19.4785 34.1274C19.4638 34.1039 19.4549 34.0827 19.4501 34.07C19.4333 34.0262 19.4252 33.9774 19.4208 33.9488C19.41 33.8788 19.4006 33.7796 19.3921 33.6673C19.3749 33.4392 19.3593 33.1246 19.3462 32.8033C19.3199 32.1618 19.3027 31.4746 19.3027 31.365C19.3027 30.4645 19.3057 29.5637 19.3112 28.6627C19.0684 28.8028 18.822 28.9388 18.5716 29.0705C16.7666 30.0205 14.9661 30.6716 12.9919 31.1181C12.4793 31.234 12.0952 31.1549 11.7475 30.9385C11.5055 30.7878 11.2763 30.5634 11.0398 30.332C10.9706 30.2643 10.9008 30.196 10.8298 30.1287C8.88321 28.2829 6.98767 26.365 5.14826 24.4148C5.0143 24.2728 4.87625 24.1095 4.73872 23.9469L4.73373 23.941C4.59257 23.7741 4.45023 23.6059 4.30208 23.4462C4.00133 23.1221 3.70335 22.8635 3.39802 22.7414C3.38318 22.7354 3.35914 22.7252 3.33414 22.7099C3.32176 22.7023 3.30061 22.6883 3.27852 22.6668C3.25943 22.6483 3.21683 22.6024 3.19767 22.528C3.174 22.4361 3.19706 22.3445 3.2485 22.2771C3.29007 22.2226 3.33947 22.1972 3.36087 22.1873C3.40489 22.1671 3.44521 22.1617 3.45747 22.16H3.45748C3.51327 22.1525 3.58918 22.1558 3.6384 22.1582C3.69469 22.161 3.74871 22.1645 3.79755 22.1677C3.86592 22.1721 3.92414 22.1759 3.96419 22.1759C4.5332 22.1759 5.10257 22.1753 5.67213 22.1747C6.81205 22.1734 7.95274 22.1721 9.09284 22.176C12.5498 22.1876 15.9953 22.3652 19.3771 22.9566C19.4108 20.8993 19.4542 18.8427 19.503 16.7888C19.508 16.5778 19.5127 16.3664 19.5174 16.1545C19.5179 16.1319 19.5184 16.1092 19.5189 16.0866C19.2723 15.8609 19.0227 15.6263 18.7741 15.3883C17.4782 14.1474 16.1632 12.7626 15.4561 12.018C15.2168 11.766 15.0471 11.5873 14.9714 11.5124C14.8576 11.3998 14.8567 11.2162 14.9693 11.1024C15.0819 10.9887 15.2654 10.9877 15.3792 11.1003C15.4735 11.1937 15.6639 11.3942 15.9257 11.6699C16.6419 12.4242 17.8927 13.7417 19.175 14.9696C19.2959 15.0853 19.4167 15.1999 19.5368 15.3126C19.591 13.1426 19.6941 10.9396 20.2151 8.79673C20.6244 7.11339 21.2326 5.43828 21.854 3.83922L21.854 3.83917C21.8542 3.83861 21.8562 3.83309 21.8607 3.81938C21.8651 3.80608 21.8705 3.78902 21.8771 3.76802C21.8819 3.75269 21.8875 3.73482 21.8936 3.71526C21.9035 3.68375 21.9147 3.64785 21.9263 3.61106C21.9648 3.48941 22.0143 3.33721 22.0672 3.19552C22.1173 3.06142 22.18 2.91014 22.2489 2.80661C22.2673 2.77892 22.2913 2.74673 22.3213 2.71692C22.3489 2.68954 22.3987 2.64686 22.4712 2.62397C22.5568 2.59696 22.6553 2.60413 22.7415 2.65764C22.8147 2.70313 22.854 2.76669 22.8742 2.80712C22.9458 2.9503 22.8878 3.12441 22.7446 3.196C22.7248 3.2059 22.7044 3.21332 22.6838 3.21838C22.6622 3.26542 22.6373 3.32598 22.6102 3.39839C22.5627 3.52571 22.5168 3.66643 22.4791 3.7858C22.4701 3.81409 22.4612 3.84278 22.4525 3.87049ZM20.0874 16.5953C20.0858 16.6643 20.0842 16.7334 20.0826 16.8025C20.033 18.8874 19.9891 20.9745 19.9551 23.0619C21.406 23.3369 22.8446 23.691 24.2667 24.1439C24.9546 23.4937 25.6266 22.817 26.2937 22.1229C26.462 21.9477 26.6338 21.7183 26.8256 21.4623C26.9086 21.3516 26.9952 21.2359 27.087 21.1174C27.3128 20.8257 27.5698 20.5177 27.8551 20.2939C27.8499 20.2856 27.8447 20.2774 27.8396 20.2693C27.8323 20.2578 27.8251 20.2464 27.8181 20.2353L27.8165 20.2327C27.7969 20.2016 27.7692 20.1577 27.7546 20.1285C27.5319 19.683 27.3476 19.222 27.1684 18.7738C27.1499 18.7276 27.1315 18.6816 27.1131 18.6357C26.9144 18.1399 26.7166 17.6607 26.468 17.206C26.1124 16.556 25.7124 15.9307 25.3073 15.2976C25.1893 15.1133 25.071 14.9283 24.9531 14.7418C24.8888 14.64 24.8288 14.5402 24.7693 14.4413C24.6738 14.2825 24.5797 14.1258 24.4708 13.9663C24.3192 13.7442 24.1622 13.5537 23.9872 13.4144C23.9863 13.416 23.9853 13.4177 23.9844 13.4194C23.9757 13.4352 23.9676 13.4504 23.9585 13.4675C23.9551 13.4739 23.9515 13.4806 23.9477 13.4878C23.9349 13.5118 23.9196 13.5399 23.9032 13.5672C23.5795 14.1069 23.5783 14.7977 23.5769 15.5955L23.5769 15.6216C23.5755 16.3861 23.5709 17.2605 23.0836 17.9453C22.9795 18.0916 22.827 18.1609 22.6692 18.1742C22.5229 18.1865 22.3716 18.1519 22.2305 18.1008C21.9472 17.9983 21.6118 17.7941 21.2545 17.5367C20.8987 17.2804 20.5025 16.9573 20.0874 16.5953ZM23.7782 24.5984C22.5142 24.2094 21.2359 23.8981 19.9458 23.6503C19.9254 24.9761 19.9092 26.3019 19.8983 27.6273C21.2874 26.7384 22.5611 25.7124 23.7782 24.5984ZM19.8931 28.3153C19.8862 29.3322 19.8825 30.3489 19.8825 31.365C19.8825 31.4617 19.8992 32.1385 19.9254 32.7796C19.9335 32.9786 19.9425 33.1723 19.9521 33.3427C19.9587 33.3374 19.9652 33.3322 19.9716 33.3271C20.0765 33.2434 20.166 33.1719 20.252 33.0793C20.7155 32.5801 20.7092 32.0496 20.7003 31.2974C20.699 31.1891 20.6977 31.0762 20.6977 30.9581C20.6977 30.6094 20.735 29.967 20.898 29.4021C20.9792 29.1206 21.0979 28.8356 21.2767 28.6156C21.4614 28.3884 21.7207 28.2207 22.0596 28.2207C23.6439 28.2207 25.1565 28.5748 26.6285 29.0055C27.1115 29.1468 27.5875 29.2954 28.0602 29.443C29.0415 29.7493 30.0089 30.0513 30.9969 30.275C31.4169 30.3701 32.2349 30.4787 32.8124 30.3731C33.1098 30.3187 33.259 30.2229 33.3132 30.13C33.3558 30.0568 33.3953 29.8811 33.174 29.4939C33.0519 29.2802 32.9599 29.1415 32.7973 29.0013C31.018 27.4674 28.5557 26.3996 26.3555 25.5115C25.7123 25.252 25.0649 25.0157 24.4136 24.8009C23.0151 26.1017 21.5368 27.3003 19.8931 28.3153ZM19.3158 27.9878C19.3269 26.5066 19.3447 25.0249 19.3677 23.5436C16.0042 22.9477 12.5639 22.7673 9.09089 22.7557C7.95207 22.7518 6.81375 22.7531 5.67468 22.7544C5.26096 22.7548 4.84714 22.7553 4.43316 22.7555C4.53623 22.8516 4.63416 22.9518 4.72703 23.0519C4.88568 23.2229 5.03645 23.4012 5.17626 23.5665L5.17639 23.5667C5.31822 23.7344 5.44731 23.887 5.56999 24.017C7.40325 25.9607 9.29113 27.8708 11.2287 29.708C11.3216 29.7961 11.4048 29.8774 11.4814 29.9522C11.7042 30.1697 11.8705 30.3322 12.0539 30.4463C12.2654 30.578 12.4923 30.6367 12.864 30.5527C14.791 30.1168 16.5435 29.4829 18.3016 28.5575C18.6469 28.3758 18.9846 28.1857 19.3158 27.9878Z" fill="black"/>
</svg>
